<svg xmlns="http://www.w3.org/2000/svg" width="35.274" height="31.766" viewBox="0 0 35.274 31.766">
  <path id="Path_1709" data-name="Path 1709" d="M36.074,6.616,25.492,3.088h-.123a1.156,1.156,0,0,0-.247,0h-.758L14.346,6.528,4.328,3.088A1.778,1.778,0,0,0,2,4.764V29.456a1.765,1.765,0,0,0,1.2,1.676l10.582,3.527h0a1.756,1.756,0,0,0,1.093,0h0l10.053-3.351,10.018,3.439a2.159,2.159,0,0,0,.564,0,1.659,1.659,0,0,0,1.023-.335,1.763,1.763,0,0,0,.741-1.429V8.291A1.765,1.765,0,0,0,36.074,6.616ZM12.582,30.531,5.527,28.186V7.215l7.055,2.346Zm10.582-2.346-7.055,2.346V9.561l7.055-2.346Zm10.582,2.346-7.055-2.346V7.215l7.055,2.346Z" transform="translate(-2 -3)"/>
</svg>
