<svg xmlns="http://www.w3.org/2000/svg" width="25.732" height="32.165" viewBox="0 0 25.732 32.165">
  <path id="Path_1710" data-name="Path 1710" d="M12.041,14.866H13.65a1.608,1.608,0,1,0,0-3.217H12.041a1.608,1.608,0,0,0,0,3.217Zm0,3.217a1.608,1.608,0,1,0,0,3.217h9.65a1.608,1.608,0,1,0,0-3.217Zm17.691-4.921a2.118,2.118,0,0,0-.1-.434v-.145a1.713,1.713,0,0,0-.306-.45h0l-9.65-9.65h0a1.713,1.713,0,0,0-.45-.306.545.545,0,0,0-.145,0A1.419,1.419,0,0,0,18.555,2H8.825A4.824,4.824,0,0,0,4,6.825V29.34a4.824,4.824,0,0,0,4.825,4.825H24.907a4.824,4.824,0,0,0,4.825-4.825V13.161Zm-9.65-5.677,4.165,4.165H21.691a1.609,1.609,0,0,1-1.608-1.608ZM26.516,29.34a1.609,1.609,0,0,1-1.608,1.608H8.825A1.609,1.609,0,0,1,7.217,29.34V6.825A1.609,1.609,0,0,1,8.825,5.217h8.041v4.825a4.824,4.824,0,0,0,4.825,4.825h4.825Zm-4.825-4.825h-9.65a1.608,1.608,0,1,0,0,3.217h9.65a1.608,1.608,0,1,0,0-3.217Z" transform="translate(-4 -2)"/>
</svg>
