<svg xmlns="http://www.w3.org/2000/svg" width="36.2" height="30.77" viewBox="0 0 36.2 30.77">
  <path id="Path_1708" data-name="Path 1708" d="M2.909,16.276l16.282,9.407a1.806,1.806,0,0,0,1.809,0l16.282-9.407a1.809,1.809,0,0,0,0-3.13L21,3.739a1.806,1.806,0,0,0-1.809,0L2.909,13.146a1.809,1.809,0,0,0,0,3.13ZM20.1,7.393,32.759,14.63,20.1,21.956,7.431,14.7ZM35.473,21.486,20.1,30.369,4.718,21.486a1.81,1.81,0,0,0-2.475.646l0,.005A1.81,1.81,0,0,0,2.9,24.61l.011.005,16.282,9.407a1.806,1.806,0,0,0,1.809,0l16.282-9.407a1.808,1.808,0,0,0,.675-2.468l-.005-.011a1.811,1.811,0,0,0-2.473-.655Z" transform="translate(-1.995 -3.496)"/>
</svg>
