<svg xmlns="http://www.w3.org/2000/svg" width="41.387" height="32.024" viewBox="0 0 41.387 32.024">
  <path id="Path_1711" data-name="Path 1711" d="M22.287,19.927a9.267,9.267,0,0,0,3.2-7.008,9.419,9.419,0,0,0-18.838,0,9.267,9.267,0,0,0,3.2,7.008A15.07,15.07,0,0,0,1,33.64a1.884,1.884,0,0,0,3.768,0,11.3,11.3,0,1,1,22.605,0,1.884,1.884,0,0,0,3.768,0A15.07,15.07,0,0,0,22.287,19.927ZM16.07,18.57a5.651,5.651,0,1,1,5.651-5.651A5.651,5.651,0,0,1,16.07,18.57Zm18.348.6A9.419,9.419,0,0,0,27.373,3.5a1.884,1.884,0,0,0,0,3.768A5.642,5.642,0,0,1,30.2,17.8,1.881,1.881,0,0,0,30.1,21l.735.49.245.132A13.184,13.184,0,0,1,38.619,33.64a1.884,1.884,0,0,0,3.768,0A16.953,16.953,0,0,0,34.418,19.173Z" transform="translate(-1 -3.5)"/>
</svg>
