<svg xmlns="http://www.w3.org/2000/svg" width="159.473" height="120.709" viewBox="0 0 159.473 120.709">
  <path id="Path_1757" data-name="Path 1757" d="M412.353,302.641a53.772,53.772,0,0,1-99.715,20.035,40.092,40.092,0,0,1-3.963-79.734V228.59h11.753v14.351a39.736,39.736,0,0,1,14.644,5.211,53.013,53.013,0,0,1,18.065-5.319V228.59h11.753v14.23a53.908,53.908,0,0,1,20.874,6.777,30.154,30.154,0,0,1,12-5.225V228.59h11.753v15.8a30.037,30.037,0,0,1,2.837,58.255Zm-97.8-48.44a28.417,28.417,0,0,0-7.22,55.919,53.295,53.295,0,0,1,16.422-54.38A28.114,28.114,0,0,0,314.552,254.2Zm19.8,8.046A41.668,41.668,0,0,0,319.8,310.538a28.338,28.338,0,0,0,14.549-48.292Zm43.227-3.74a42.064,42.064,0,0,0-32.478-1.931,39.987,39.987,0,0,1-19.408,64.573,42.037,42.037,0,0,0,74.593-17.4,30.244,30.244,0,0,1-26.954-29.958A29.506,29.506,0,0,1,377.581,258.507Zm9.718,6.615a17.967,17.967,0,0,0-2.212,8.667,18.5,18.5,0,0,0,15.744,18.239A41.588,41.588,0,0,0,387.3,265.122Zm16.341-9.626a18.562,18.562,0,0,0-7.7,1.661,53.24,53.24,0,0,1,16.49,32.833,18.361,18.361,0,0,0-8.795-34.494Z" transform="translate(-274.31 -228.59)" fill="#019544"/>
</svg>
